# xmcd
#
# Track frame offsets: 
#        150
#        19871
#        41152
#        61796
#        82480
#
# Disc length: 1388 seconds
#
# Revision: 1
# Processed by: cddbd v1.5.2PL0 Copyright (c) Steve Scherf et al.
# Submitted via: ExactAudioCopy v1.3
#
DISCID=3f056a05
DTITLE=DOLL$BOXX - high $pec
DYEAR=2017
DGENRE=Rock
TTITLE0=Shout Down
TTITLE1=Sub-liminal
TTITLE2=HERO
TTITLE3=世界はきっと愛を知ってるんだ
TTITLE4=Dragonet
EXTD=
EXTT0=
EXTT1=
EXTT2=
EXTT3=
EXTT4=
PLAYORDER=
